<?xml version="1.0" encoding="UTF-8" standalone="no"?>
<!-- Created with Inkscape (http://www.inkscape.org/) -->

<svg
   version="1.1"
   id="svg197"
   xml:space="preserve"
   width="1821.3333"
   height="341.33334"
   viewBox="0 0 1821.3333 341.33334"
   sodipodi:docname="readme-heade-dark.svg"
   inkscape:version="1.1 (c68e22c387, 2021-05-23)"
   xmlns:inkscape="http://www.inkscape.org/namespaces/inkscape"
   xmlns:sodipodi="http://sodipodi.sourceforge.net/DTD/sodipodi-0.dtd"
   xmlns="http://www.w3.org/2000/svg"
   xmlns:svg="http://www.w3.org/2000/svg"><defs
     id="defs201"><clipPath
       clipPathUnits="userSpaceOnUse"
       id="clipPath223"><path
         d="M 0,256 H 1366 V 0 H 0 Z"
         id="path221" /></clipPath></defs><sodipodi:namedview
     id="namedview199"
     pagecolor="#ffffff"
     bordercolor="#666666"
     borderopacity="1.0"
     inkscape:pageshadow="2"
     inkscape:pageopacity="0.0"
     inkscape:pagecheckerboard="0"
     showgrid="false"
     inkscape:zoom="0.31597732"
     inkscape:cx="707.32925"
     inkscape:cy="289.57775"
     inkscape:window-width="1680"
     inkscape:window-height="987"
     inkscape:window-x="1672"
     inkscape:window-y="-8"
     inkscape:window-maximized="1"
     inkscape:current-layer="g203" /><g
     id="g203"
     inkscape:groupmode="layer"
     inkscape:label="readme-header"
     transform="matrix(1.3333333,0,0,-1.3333333,0,341.33333)"><path
       d="M 0,0 H 1366 V 256 H 0 Z"
       style="fill:#000000;fill-opacity:1;fill-rule:nonzero;stroke:none"
       id="path205" /><text
       transform="matrix(1,0,0,-1,92,86.0332)"
       style="font-variant:normal;font-weight:bold;font-stretch:normal;font-size:109.785px;font-family:Arimo;-inkscape-font-specification:Arimo-Bold;writing-mode:lr-tb;fill:#ffffff;fill-opacity:1;fill-rule:nonzero;stroke:none"
       id="text209"><tspan
         x="0 73.226593 152.49136 237.9041"
         y="0"
         sodipodi:role="line"
         id="tspan207">ERGO</tspan></text><text
       transform="matrix(1,0,0,-1,415.31682,86.0332)"
       style="font-style:italic;font-variant:normal;font-weight:500;font-stretch:normal;font-size:109.785px;font-family:'Arimo Medium';-inkscape-font-specification:Arimo-MediumItalic;writing-mode:lr-tb;fill:#ffffff;fill-opacity:1;fill-rule:nonzero;stroke:none"
       id="text213"><tspan
         x="0 32.496361 95.512947 158.52954"
         y="0"
         sodipodi:role="line"
         id="tspan211">fund</tspan></text><path
       d="M 1264.241,106.335 H 1085 v -40.82 h 179.241 z"
       style="fill:none;stroke:#ffffff;stroke-width:6;stroke-linecap:butt;stroke-linejoin:miter;stroke-miterlimit:10;stroke-dasharray:none;stroke-opacity:1"
       id="path215" /><g
       id="g217"><g
         id="g219"
         clip-path="url(#clipPath223)"><g
           id="g225"
           transform="translate(1127.8975,76.0176)"><path
             d="m 0,0 c -0.938,0.375 -1.688,1.125 -2.09,2.063 l -19.45,45.571 c -0.402,0.938 -0.402,1.983 -0.027,2.947 l 18.459,46 c 0.375,0.938 1.126,1.688 2.063,2.09 l 45.544,19.45 c 0.939,0.402 1.983,0.402 2.947,0.027 l 46,-18.459 c 0.939,-0.375 1.689,-1.125 2.09,-2.063 l 19.45,-45.571 c 0.403,-0.938 0.403,-1.983 0.028,-2.948 L 96.555,3.134 C 96.18,2.197 95.429,1.446 94.491,1.044"
             style="fill:#ffffff;fill-opacity:1;fill-rule:nonzero;stroke:none"
             id="path227" /></g><g
           id="g229"
           transform="translate(1217.915,83.4922)"><path
             d="M 0,0 17.28,43.026 -0.937,85.677 -43.964,102.958 -86.615,84.74 -103.896,41.713 -85.678,-0.938"
             style="fill:#000000;fill-opacity:1;fill-rule:nonzero;stroke:none"
             id="path231" /></g><g
           id="g233"
           transform="translate(1184.5068,126.5986)"><path
             d="m 0,0 -18.433,-20.308 h 29.069 v -8.734 h -41.044 v 8.734 l 18.271,20.228 -18.191,18.941 v 8.734 h 40.964 v -8.734 h -28.64 z"
             style="fill:#ffffff;fill-opacity:1;fill-rule:nonzero;stroke:none"
             id="path235" /></g><g
           id="g237"
           transform="translate(1103.8701,85.9253)"><path
             d="M 0,0 H 141.501"
             style="fill:#ffffff;fill-opacity:1;fill-rule:nonzero;stroke:#ffffff;stroke-width:6;stroke-linecap:butt;stroke-linejoin:miter;stroke-miterlimit:10;stroke-dasharray:none;stroke-opacity:1"
             id="path239" /></g><path
           d="m 1250.118,70.947 h -150.111 v 11.851 h 150.111 z"
           style="fill:#000000;fill-opacity:1;fill-rule:nonzero;stroke:none"
           id="path241" /></g></g></g></svg>
