<?xml version="1.0" encoding="UTF-8" standalone="no"?>
<!-- Created with Inkscape (http://www.inkscape.org/) -->

<svg
   width="512"
   height="512"
   viewBox="0 0 135.46666 135.46667"
   version="1.1"
   id="svg5"
   inkscape:version="1.1 (c68e22c387, 2021-05-23)"
   sodipodi:docname="search.svg"
   xmlns:inkscape="http://www.inkscape.org/namespaces/inkscape"
   xmlns:sodipodi="http://sodipodi.sourceforge.net/DTD/sodipodi-0.dtd"
   xmlns="http://www.w3.org/2000/svg"
   xmlns:svg="http://www.w3.org/2000/svg">
  <sodipodi:namedview
     id="namedview7"
     pagecolor="#ffffff"
     bordercolor="#666666"
     borderopacity="1.0"
     inkscape:pageshadow="2"
     inkscape:pageopacity="0.0"
     inkscape:pagecheckerboard="0"
     inkscape:document-units="mm"
     showgrid="false"
     units="px"
     inkscape:snap-bbox="true"
     inkscape:bbox-paths="true"
     inkscape:snap-bbox-edge-midpoints="true"
     inkscape:snap-bbox-midpoints="true"
     inkscape:bbox-nodes="true"
     inkscape:object-paths="true"
     inkscape:snap-intersection-paths="true"
     inkscape:snap-object-midpoints="true"
     inkscape:snap-center="true"
     inkscape:zoom="0.47433592"
     inkscape:cx="821.14802"
     inkscape:cy="251.93116"
     inkscape:window-width="1680"
     inkscape:window-height="987"
     inkscape:window-x="1672"
     inkscape:window-y="-8"
     inkscape:window-maximized="1"
     inkscape:current-layer="layer1" />
  <defs
     id="defs2" />
  <g
     inkscape:label="Layer 1"
     inkscape:groupmode="layer"
     id="layer1">
    <path
       id="path846"
       style="color:#000000;fill:#000000;stroke-width:3.77953;stroke-linecap:round;stroke-linejoin:round;-inkscape-stroke:none;paint-order:fill markers stroke"
       d="M 209.86719 9.8320312 C 100.59875 9.8320312 11.375 99.055779 11.375 208.32422 C 11.375 317.59265 100.59875 406.81641 209.86719 406.81641 C 253.72403 406.81641 294.34408 392.43227 327.26953 368.1582 L 457.49219 498.37305 L 499.91602 455.94922 L 369.69727 325.73047 C 393.97329 292.80423 408.35938 252.18301 408.35938 208.32422 C 408.35938 99.055779 319.13562 9.8320312 209.86719 9.8320312 z M 209.86719 69.832031 C 286.70925 69.832031 348.35938 131.48215 348.35938 208.32422 C 348.35938 285.16628 286.70925 346.81641 209.86719 346.81641 C 133.02512 346.81641 71.375 285.16628 71.375 208.32422 C 71.375 131.48215 133.02512 69.832035 209.86719 69.832031 z "
       transform="scale(0.26458333)" />
  </g>
</svg>
